<?xml version="1.0" encoding="UTF-8"?>
<svg id="Layer_1" data-name="Layer 1" xmlns="http://www.w3.org/2000/svg" viewBox="0 0 16 16">
  <defs>
    <style>
      .cls-1 {
        fill: #fff;
      }

      .cls-2 {
        fill: #1d283a;
      }
    </style>
  </defs>
  <g>
    <path class="cls-2" d="m8.03,8.51c-3.23,0-6.13-.61-7.38-1.56l.24-.32c1.17.89,4.04,1.48,7.14,1.48s5.97-.59,7.14-1.48l.24.32c-1.25.95-4.15,1.56-7.38,1.56Zm0-4.2c-2.49,0-4.68-.51-5.44-1.28l.28-.28c.68.68,2.8,1.16,5.16,1.16s4.48-.48,5.16-1.16l.28.28c-.76.76-2.95,1.28-5.44,1.28Z"/>
    <path class="cls-2" d="m8.03,15.54c-.97,0-1.88-.81-2.54-2.27-.64-1.41-1-3.29-1-5.28s.35-3.87,1-5.28c.66-1.46,1.57-2.27,2.54-2.27s1.88.81,2.54,2.27c.64,1.41,1,3.29,1,5.28s-.35,3.87-1,5.28c-.66,1.46-1.57,2.27-2.54,2.27Zm0-14.71c-.81,0-1.58.72-2.18,2.04-.62,1.36-.96,3.18-.96,5.12s.34,3.75.96,5.12c.6,1.31,1.37,2.04,2.18,2.04s1.58-.72,2.18-2.04c.62-1.36.96-3.18.96-5.12s-.34-3.75-.96-5.12c-.6-1.31-1.37-2.04-2.18-2.04Z"/>
    <path class="cls-2" d="m8.03,12.45c-3.39,0-6.29-.74-7.05-1.81l.32-.23c.68.95,3.51,1.64,6.73,1.64s6.05-.69,6.73-1.64l.32.23c-.76,1.06-3.66,1.81-7.05,1.81Z"/>
  </g>
  <g>
    <path class="cls-2" d="m5.63,5.14c-.17,0-.31.14-.31.31s.14.31.31.31.31-.14.31-.31-.14-.31-.31-.31Zm0,.33s-.02,0-.02-.02,0-.02.02-.02.02,0,.02.02,0,.02-.02.02Z"/>
    <path class="cls-2" d="m7.2,5.89c-.17,0-.31.14-.31.31s.14.31.31.31.31-.14.31-.31-.14-.31-.31-.31Zm0,.33s-.02,0-.02-.02,0-.02.02-.02.02,0,.02.02,0,.02-.02.02Z"/>
    <path class="cls-2" d="m4.03,5.97c-.17,0-.31.14-.31.31s.14.31.31.31.31-.14.31-.31-.14-.31-.31-.31Zm0,.33s-.02,0-.02-.02,0-.02.02-.02.02,0,.02.02,0,.02-.02.02Z"/>
    <path class="cls-2" d="m5.63,6.75c-.17,0-.31.14-.31.31s.14.31.31.31.31-.14.31-.31-.14-.31-.31-.31Zm0,.33s-.02,0-.02-.02,0-.02.02-.02.02,0,.02.02,0,.02-.02.02Z"/>
    <path class="cls-2" d="m7.37,8.95c-.17,0-.31.14-.31.31s.14.31.31.31.31-.14.31-.31-.14-.31-.31-.31Zm0,.33s-.02,0-.02-.02,0-.02.02-.02.02,0,.02.02,0,.02-.02.02Z"/>
    <path class="cls-2" d="m3.11,7.5c-.17,0-.31.14-.31.31s.14.31.31.31.31-.14.31-.31-.14-.31-.31-.31Zm0,.33s-.02,0-.02-.02,0-.02.02-.02.02,0,.02.02,0,.02-.02.02Z"/>
    <path class="cls-2" d="m4.7,10.16c-.17,0-.31.14-.31.31s.14.31.31.31.31-.14.31-.31-.14-.31-.31-.31Zm0,.33s-.02,0-.02-.02,0-.02.02-.02.02,0,.02.02,0,.02-.02.02Z"/>
    <path class="cls-2" d="m13.75,6.54c0-.18-.09-.35-.24-.44l-2.72-1.78c-.17-.11-.38-.12-.55-.02l-2.33,1.27-2.1-1.13c-.16-.09-.35-.09-.51,0l-2.87,1.54c-.17.09-.28.27-.28.47v3.46c0,.19.09.36.25.45l2.83,1.77c.09.05.19.08.28.08s.2-.03.28-.08l2.18-1.35,1.97,1.12c.08.05.17.07.27.07s.18-.02.26-.06l3.01-1.64c.17-.1.28-.28.28-.47l-.02-3.25Zm-3.5-1.92l.1,3.27-1.39.75v-2.2c0-.2-.11-.38-.28-.47l-.46-.25,2.03-1.11Zm-4.88,7.25l-2.8-1.76c-.07-.04-.11-.12-.11-.21v-3.31l2.92,1.48v3.79Zm.15-4.05l-3.01-1.53s.04-.04.07-.06l2.87-1.54s.08-.03.12-.03.08,0,.12.03l2.87,1.54s.04.02.05.04l-3.08,1.55Zm.15,4.06v-3.81l3.01-1.51v3.32c0,.09-.04.16-.12.21l-2.89,1.79Zm4.68-.22c-.07.04-.16.04-.24,0l-1.84-1.05.44-.27c.16-.1.25-.27.25-.46v-.9l1.52-.83,2.77,1.92-2.91,1.59Zm3.13-1.79l-2.83-1.97-.1-3.37s.06.02.09.04l2.72,1.78c.07.05.11.12.11.2l.02,3.25s0,.05,0,.07Z"/>
    <path class="cls-1" d="m5.66,8.07v3.81l2.89-1.79c.07-.04.12-.12.12-.21v-3.32l-3.01,1.51Zm1.71,1.51c-.17,0-.31-.14-.31-.31s.14-.31.31-.31.31.14.31.31-.14.31-.31.31Z"/>
    <path class="cls-1" d="m10.35,7.89l-.1-3.27-2.03,1.11.46.25c.17.09.28.27.28.47v2.2l1.39-.75Zm-1.16-2.2c.02-.08.08-.15.15-.19.15-.08.34-.03.42.12.03.05.04.1.04.15,0,.11-.06.22-.16.28-.05.03-.1.04-.15.04-.03,0-.06,0-.09-.01-.08-.02-.15-.08-.19-.15-.04-.07-.05-.16-.03-.24Z"/>
    <path class="cls-1" d="m13.46,6.54c0-.08-.04-.16-.11-.2l-2.72-1.78s-.06-.03-.09-.04l.1,3.37,2.83,1.97s0-.04,0-.07l-.02-3.25Zm-2.48-.77c.02-.08.08-.15.15-.19.07-.04.16-.05.24-.03.08.02.15.08.19.15.03.05.04.1.04.15,0,.11-.06.22-.16.28-.05.03-.1.04-.15.04-.11,0-.22-.06-.28-.16-.04-.07-.05-.16-.03-.24Zm.52,2.14s-.1.04-.15.04c-.03,0-.06,0-.09-.01-.08-.02-.15-.08-.19-.15-.04-.07-.05-.16-.03-.24.02-.08.08-.15.15-.19.15-.08.34-.03.42.13.03.05.04.1.04.15,0,.11-.06.22-.16.27Zm.99-.9c-.04-.07-.05-.16-.03-.24.02-.08.08-.15.15-.19.15-.08.34-.03.42.13.04.07.05.16.03.24-.02.08-.08.15-.15.19-.05.03-.1.04-.15.04-.03,0-.06,0-.09-.01-.08-.02-.15-.08-.19-.15Zm.52,1.86s-.1.04-.15.04c-.03,0-.06,0-.09-.01-.08-.02-.15-.08-.19-.15-.08-.15-.03-.34.13-.42.15-.08.34-.03.42.13.03.05.04.1.04.15,0,.11-.06.22-.16.27Z"/>
    <path class="cls-1" d="m10.49,8.14l-1.52.83v.9c0,.19-.09.36-.25.46l-.44.27,1.84,1.05c.07.04.16.04.24,0l2.91-1.59-2.77-1.92Zm-.09,2.35s-.1.04-.15.04c-.03,0-.06,0-.09-.01-.08-.02-.15-.08-.19-.15-.04-.07-.05-.16-.03-.24.02-.08.08-.15.15-.19.07-.04.16-.05.24-.03.08.02.15.08.19.15.03.05.04.1.04.15,0,.11-.06.22-.16.28Z"/>
    <path class="cls-1" d="m2.45,6.58v3.31c0,.08.04.16.11.21l2.8,1.76v-3.79l-2.92-1.48Zm.66,1.54c-.17,0-.31-.14-.31-.31s.14-.31.31-.31.31.14.31.31-.14.31-.31.31Zm1.59,2.67c-.17,0-.31-.14-.31-.31s.14-.31.31-.31.31.14.31.31-.14.31-.31.31Z"/>
    <path class="cls-2" d="m3.13,7.81s0,.02-.02.02-.02,0-.02-.02,0-.02.02-.02.02,0,.02.02Z"/>
    <path class="cls-1" d="m8.54,6.22l-2.87-1.54s-.08-.03-.12-.03-.08,0-.12.03l-2.87,1.54s-.05.04-.07.06l3.01,1.53,3.08-1.55s-.03-.03-.05-.04Zm-4.51.37c-.17,0-.31-.14-.31-.31s.14-.31.31-.31.31.14.31.31-.14.31-.31.31Zm1.59.78c-.17,0-.31-.14-.31-.31s.14-.31.31-.31.31.14.31.31-.14.31-.31.31Zm0-1.61c-.17,0-.31-.14-.31-.31s.14-.31.31-.31.31.14.31.31-.14.31-.31.31Zm1.57.75c-.17,0-.31-.14-.31-.31s.14-.31.31-.31.31.14.31.31-.14.31-.31.31Z"/>
    <path class="cls-2" d="m7.22,6.2s0,.02-.02.02-.02,0-.02-.02,0-.02.02-.02.02,0,.02.02Z"/>
    <path class="cls-2" d="m5.65,5.45s0,.02-.02.02-.02,0-.02-.02,0-.02.02-.02.02,0,.02.02Z"/>
    <path class="cls-2" d="m4.06,6.28s0,.02-.02.02-.02,0-.02-.02,0-.02.02-.02.02,0,.02.02Z"/>
    <path class="cls-2" d="m5.65,7.06s0,.02-.02.02-.02,0-.02-.02,0-.02.02-.02.02,0,.02.02Z"/>
    <path class="cls-2" d="m7.39,9.26s0,.02-.02.02-.02,0-.02-.02,0-.02.02-.02.02,0,.02.02Z"/>
    <path class="cls-2" d="m13.04,6.71c-.08-.15-.27-.21-.42-.13-.07.04-.13.11-.15.19-.02.08-.01.16.03.24.04.07.11.13.19.15.03,0,.06.01.09.01.05,0,.1-.01.15-.04.07-.04.13-.11.15-.19.02-.08.01-.16-.03-.24Zm-.25.16s0,0-.01.01c0,0,0,0-.01,0,0,0,0,0,0,0,0,0,0,0-.01-.01,0,0,0-.01,0-.02,0,0,0,0,.01-.01,0,0,0,0,0,0,0,0,0,0,0,0,0,0,0,0,.01.01,0,0,0,.01,0,.02Z"/>
    <path class="cls-2" d="m12.78,6.87s0,0-.01.01c0,0,0,0-.01,0,0,0,0,0,0,0,0,0,0,0-.01-.01,0,0,0-.01,0-.02,0,0,0,0,.01-.01,0,0,0,0,0,0,0,0,0,0,0,0,0,0,0,0,.01.01,0,0,0,.01,0,.02Z"/>
    <path class="cls-2" d="m13.13,8.45c-.08-.15-.27-.21-.42-.13-.15.08-.21.27-.13.42.04.07.11.13.19.15.03,0,.06.01.09.01.05,0,.1-.01.15-.04.1-.06.16-.16.16-.27,0-.05-.01-.1-.04-.15Zm-.26.17s-.01,0-.02,0c0,0,0,0-.01-.01,0,0,0-.01,0-.02s0,0,.01-.01c0,0,0,0,0,0,0,0,0,0,0,0,0,0,0,0,.01.01,0,.01,0,.02,0,.03Z"/>
    <path class="cls-2" d="m12.87,8.62s-.01,0-.02,0c0,0,0,0-.01-.01,0,0,0-.01,0-.02s0,0,.01-.01c0,0,0,0,0,0,0,0,0,0,0,0,0,0,0,0,.01.01,0,.01,0,.02,0,.03Z"/>
    <path class="cls-2" d="m11.55,5.71c-.04-.07-.11-.13-.19-.15-.08-.02-.16-.01-.24.03-.07.04-.13.11-.15.19-.02.08-.01.16.03.24.06.1.16.16.28.16.05,0,.1-.01.15-.04.1-.06.16-.16.16-.28,0-.05-.01-.1-.04-.15Zm-.25.16s0,0,0,.01c-.01,0-.02,0-.03,0,0,0,0-.01,0-.02,0,0,0,0,0-.01,0,0,0,0,0,0,0,0,0,0,0,0,0,0,0,0,.01.01,0,0,0,.01,0,.02Z"/>
    <path class="cls-2" d="m11.3,5.87s0,0,0,.01c-.01,0-.02,0-.03,0,0,0,0-.01,0-.02,0,0,0,0,0-.01,0,0,0,0,0,0,0,0,0,0,0,0,0,0,0,0,.01.01,0,0,0,.01,0,.02Z"/>
    <path class="cls-2" d="m11.62,7.48c-.08-.15-.27-.21-.42-.13-.07.04-.13.11-.15.19-.02.08-.01.16.03.24.04.07.11.13.19.15.03,0,.06.01.09.01.05,0,.1-.01.15-.04.1-.06.16-.16.16-.27,0-.05-.01-.1-.04-.15Zm-.26.17s-.01,0-.02,0c0,0,0,0-.01-.01,0,0,0-.01,0-.02,0,0,0,0,0-.01,0,0,0,0,0,0,0,0,0,0,0,0,0,0,0,0,.01.01,0,.01,0,.02,0,.03Z"/>
    <path class="cls-2" d="m11.36,7.65s-.01,0-.02,0c0,0,0,0-.01-.01,0,0,0-.01,0-.02,0,0,0,0,0-.01,0,0,0,0,0,0,0,0,0,0,0,0,0,0,0,0,.01.01,0,.01,0,.02,0,.03Z"/>
    <path class="cls-2" d="m10.53,10.06c-.04-.07-.11-.13-.19-.15-.08-.02-.16-.01-.24.03-.07.04-.13.11-.15.19-.02.08-.01.16.03.24.04.07.11.13.19.15.03,0,.06.01.09.01.05,0,.1-.01.15-.04.1-.06.16-.16.16-.28,0-.05-.01-.1-.04-.15Zm-.25.16s0,0-.01.01c0,0-.01,0-.02,0,0,0,0,0-.01-.01,0,0,0-.01,0-.02,0,0,0,0,.01-.01,0,0,0,0,0,0,0,0,0,0,0,0,0,0,0,0,.01.01,0,0,0,.01,0,.02Z"/>
    <path class="cls-2" d="m10.27,10.22s0,0-.01.01c0,0-.01,0-.02,0,0,0,0,0-.01-.01,0,0,0-.01,0-.02,0,0,0,0,.01-.01,0,0,0,0,0,0,0,0,0,0,0,0,0,0,0,0,.01.01,0,0,0,.01,0,.02Z"/>
    <path class="cls-2" d="m9.77,5.63c-.08-.15-.27-.21-.42-.12-.07.04-.13.11-.15.19-.02.08-.01.16.03.24.04.07.11.13.19.15.03,0,.06.01.09.01.05,0,.1-.01.15-.04.1-.06.16-.16.16-.28,0-.05-.01-.1-.04-.15Zm-.26.17s-.01,0-.02,0c0,0,0,0-.01-.01,0,0,0-.01,0-.02,0,0,0,0,.01-.01,0,0,0,0,0,0,0,0,0,0,0,0,0,0,0,0,.01.01,0,.01,0,.02,0,.03Z"/>
    <path class="cls-2" d="m9.5,5.8s-.01,0-.02,0c0,0,0,0-.01-.01,0,0,0-.01,0-.02,0,0,0,0,.01-.01,0,0,0,0,0,0,0,0,0,0,0,0,0,0,0,0,.01.01,0,.01,0,.02,0,.03Z"/>
  </g>
  <path class="cls-2" d="m8,16C3.59,16,0,12.41,0,8S3.59,0,8,0s8,3.59,8,8-3.59,8-8,8Zm0-14.63C4.35,1.37,1.37,4.35,1.37,8s2.97,6.63,6.63,6.63,6.63-2.97,6.63-6.63S11.65,1.37,8,1.37Z"/>
  <rect class="cls-2" x="7.13" y=".91" width="1.37" height="14.61" transform="translate(-3.49 9.08) rotate(-50.79)"/>
</svg>